<svg width="151" height="150" viewBox="0 0 151 150" fill="none" xmlns="http://www.w3.org/2000/svg">
<g filter="url(#filter0_d_240_8)">
<path d="M56.4878 52.0976H54.6585V50.2683H56.4878V52.0976ZM56.4878 53.9268H54.6585V52.0976H56.4878V53.9268ZM56.4878 55.7561H54.6585V53.9268H56.4878V55.7561ZM56.4878 57.5854H54.6585V55.7561H56.4878V57.5854ZM56.4878 59.4146H54.6585V57.5854H56.4878V59.4146ZM56.4878 61.2439H54.6585V59.4146H56.4878V61.2439ZM56.4878 63.0732H54.6585V61.2439H56.4878V63.0732ZM56.4878 64.9024H54.6585V63.0732H56.4878V64.9024ZM56.4878 66.7317H54.6585V64.9024H56.4878V66.7317ZM56.4878 68.561H54.6585V66.7317H56.4878V68.561ZM56.4878 70.3902H54.6585V68.561H56.4878V70.3902ZM56.4878 72.2195H54.6585V70.3902H56.4878V72.2195ZM56.4878 74.0488H54.6585V72.2195H56.4878V74.0488ZM56.4878 75.8781H54.6585V74.0488H56.4878V75.8781ZM56.4878 77.7073H54.6585V75.8781H56.4878V77.7073ZM58.3171 77.7073H56.4878V75.8781H58.3171V77.7073ZM58.3171 75.8781H56.4878V74.0488H58.3171V75.8781ZM58.3171 74.0488H56.4878V72.2195H58.3171V74.0488ZM58.3171 72.2195H56.4878V70.3902H58.3171V72.2195ZM58.3171 70.3902H56.4878V68.561H58.3171V70.3902ZM58.3171 68.561H56.4878V66.7317H58.3171V68.561ZM58.3171 66.7317H56.4878V64.9024H58.3171V66.7317ZM60.1463 64.9024H58.3171V63.0732H60.1463V64.9024ZM60.1463 63.0732H58.3171V61.2439H60.1463V63.0732ZM60.1463 61.2439H58.3171V59.4146H60.1463V61.2439ZM60.1463 59.4146H58.3171V57.5854H60.1463V59.4146ZM60.1463 57.5854H58.3171V55.7561H60.1463V57.5854ZM60.1463 55.7561H58.3171V53.9268H60.1463V55.7561ZM60.1463 53.9268H58.3171V52.0976H60.1463V53.9268ZM60.1463 52.0976H58.3171V50.2683H60.1463V52.0976ZM61.9756 52.0976H60.1463V50.2683H61.9756V52.0976ZM63.8049 52.0976H61.9756V50.2683H63.8049V52.0976ZM63.8049 53.9268H61.9756V52.0976H63.8049V53.9268ZM63.8049 55.7561H61.9756V53.9268H63.8049V55.7561ZM63.8049 57.5854H61.9756V55.7561H63.8049V57.5854ZM63.8049 59.4146H61.9756V57.5854H63.8049V59.4146ZM63.8049 61.2439H61.9756V59.4146H63.8049V61.2439ZM63.8049 63.0732H61.9756V61.2439H63.8049V63.0732ZM63.8049 64.9024H61.9756V63.0732H63.8049V64.9024ZM61.9756 64.9024H60.1463V63.0732H61.9756V64.9024ZM61.9756 66.7317H60.1463V64.9024H61.9756V66.7317ZM61.9756 63.0732H60.1463V61.2439H61.9756V63.0732ZM61.9756 61.2439H60.1463V59.4146H61.9756V61.2439ZM61.9756 59.4146H60.1463V57.5854H61.9756V59.4146ZM61.9756 57.5854H60.1463V55.7561H61.9756V57.5854ZM61.9756 55.7561H60.1463V53.9268H61.9756V55.7561ZM61.9756 53.9268H60.1463V52.0976H61.9756V53.9268ZM58.3171 52.0976H56.4878V50.2683H58.3171V52.0976ZM58.3171 53.9268H56.4878V52.0976H58.3171V53.9268ZM58.3171 55.7561H56.4878V53.9268H58.3171V55.7561ZM58.3171 57.5854H56.4878V55.7561H58.3171V57.5854ZM58.3171 59.4146H56.4878V57.5854H58.3171V59.4146ZM58.3171 61.2439H56.4878V59.4146H58.3171V61.2439ZM58.3171 63.0732H56.4878V61.2439H58.3171V63.0732ZM58.3171 64.9024H56.4878V63.0732H58.3171V64.9024ZM56.4878 83.1951H54.6585V81.3659H56.4878V83.1951ZM56.4878 81.3659H54.6585V79.5366H56.4878V81.3659ZM56.4878 79.5366H54.6585V77.7073H56.4878V79.5366ZM61.9756 86.8537H60.1463V85.0244H61.9756V86.8537ZM61.9756 83.1951H60.1463V81.3659H61.9756V83.1951ZM61.9756 81.3659H60.1463V79.5366H61.9756V81.3659ZM61.9756 79.5366H60.1463V77.7073H61.9756V79.5366ZM61.9756 77.7073H60.1463V75.8781H61.9756V77.7073ZM61.9756 75.8781H60.1463V74.0488H61.9756V75.8781ZM61.9756 74.0488H60.1463V72.2195H61.9756V74.0488ZM61.9756 72.2195H60.1463V70.3902H61.9756V72.2195ZM63.8049 70.3902H61.9756V68.561H63.8049V70.3902ZM63.8049 68.561H61.9756V66.7317H63.8049V68.561ZM63.8049 66.7317H61.9756V64.9024H63.8049V66.7317ZM63.8049 72.2195H61.9756V70.3902H63.8049V72.2195ZM63.8049 74.0488H61.9756V72.2195H63.8049V74.0488ZM63.8049 75.8781H61.9756V74.0488H63.8049V75.8781ZM63.8049 77.7073H61.9756V75.8781H63.8049V77.7073ZM63.8049 79.5366H61.9756V77.7073H63.8049V79.5366ZM63.8049 81.3659H61.9756V79.5366H63.8049V81.3659ZM63.8049 83.1951H61.9756V81.3659H63.8049V83.1951ZM63.8049 85.0244H61.9756V83.1951H63.8049V85.0244ZM63.8049 86.8537H61.9756V85.0244H63.8049V86.8537ZM63.8049 88.6829H61.9756V86.8537H63.8049V88.6829ZM61.9756 85.0244H60.1463V83.1951H61.9756V85.0244ZM63.8049 90.5122H61.9756V88.6829H63.8049V90.5122ZM63.8049 92.3415H61.9756V90.5122H63.8049V92.3415ZM60.1463 86.8537H58.3171V85.0244H60.1463V86.8537ZM60.1463 85.0244H58.3171V83.1951H60.1463V85.0244ZM60.1463 83.1951H58.3171V81.3659H60.1463V83.1951ZM58.3171 81.3659H56.4878V79.5366H58.3171V81.3659ZM58.3171 79.5366H56.4878V77.7073H58.3171V79.5366ZM58.3171 83.1951H56.4878V81.3659H58.3171V83.1951ZM58.3171 85.0244H56.4878V83.1951H58.3171V85.0244ZM60.1463 81.3659H58.3171V79.5366H60.1463V81.3659ZM60.1463 79.5366H58.3171V77.7073H60.1463V79.5366ZM60.1463 77.7073H58.3171V75.8781H60.1463V77.7073ZM60.1463 75.8781H58.3171V74.0488H60.1463V75.8781ZM60.1463 74.0488H58.3171V72.2195H60.1463V74.0488ZM60.1463 72.2195H58.3171V70.3902H60.1463V72.2195ZM60.1463 70.3902H58.3171V68.561H60.1463V70.3902ZM60.1463 68.561H58.3171V66.7317H60.1463V68.561ZM60.1463 66.7317H58.3171V64.9024H60.1463V66.7317ZM61.9756 68.561H60.1463V66.7317H61.9756V68.561ZM61.9756 70.3902H60.1463V68.561H61.9756V70.3902ZM74.7805 92.3415H72.9512V90.5122H74.7805V92.3415ZM74.7805 90.5122H72.9512V88.6829H74.7805V90.5122ZM74.7805 88.6829H72.9512V86.8537H74.7805V88.6829ZM74.7805 86.8537H72.9512V85.0244H74.7805V86.8537ZM76.6098 88.6829H74.7805V86.8537H76.6098V88.6829ZM76.6098 90.5122H74.7805V88.6829H76.6098V90.5122ZM67.4634 96H65.6341V94.1707H67.4634V96ZM69.2927 96H67.4634V94.1707H69.2927V96ZM71.1219 96H69.2927V94.1707H71.1219V96ZM72.9512 94.1707H71.1219V92.3415H72.9512V94.1707ZM71.1219 94.1707H69.2927V92.3415H71.1219V94.1707ZM69.2927 94.1707H67.4634V92.3415H69.2927V94.1707ZM67.4634 94.1707H65.6341V92.3415H67.4634V94.1707ZM65.6341 94.1707H63.8049V92.3415H65.6341V94.1707ZM65.6341 92.3415H63.8049V90.5122H65.6341V92.3415ZM65.6341 90.5122H63.8049V88.6829H65.6341V90.5122ZM67.4634 92.3415H65.6341V90.5122H67.4634V92.3415ZM69.2927 92.3415H67.4634V90.5122H69.2927V92.3415ZM71.1219 92.3415H69.2927V90.5122H71.1219V92.3415ZM72.9512 92.3415H71.1219V90.5122H72.9512V92.3415ZM72.9512 90.5122H71.1219V88.6829H72.9512V90.5122ZM71.1219 90.5122H69.2927V88.6829H71.1219V90.5122ZM69.2927 90.5122H67.4634V88.6829H69.2927V90.5122ZM67.4634 90.5122H65.6341V88.6829H67.4634V90.5122ZM65.6341 88.6829H63.8049V86.8537H65.6341V88.6829ZM67.4634 88.6829H65.6341V86.8537H67.4634V88.6829ZM72.9512 88.6829H71.1219V86.8537H72.9512V88.6829ZM71.1219 88.6829H69.2927V86.8537H71.1219V88.6829ZM72.9512 86.8537H71.1219V85.0244H72.9512V86.8537ZM65.6341 86.8537H63.8049V85.0244H65.6341V86.8537ZM61.9756 90.5122H60.1463V88.6829H61.9756V90.5122ZM61.9756 88.6829H60.1463V86.8537H61.9756V88.6829ZM60.1463 88.6829H58.3171V86.8537H60.1463V88.6829ZM58.3171 86.8537H56.4878V85.0244H58.3171V86.8537ZM56.4878 85.0244H54.6585V83.1951H56.4878V85.0244ZM65.6341 85.0244H63.8049V83.1951H65.6341V85.0244ZM67.4634 86.8537H65.6341V85.0244H67.4634V86.8537ZM69.2927 88.6829H67.4634V86.8537H69.2927V88.6829ZM71.1219 86.8537H69.2927V85.0244H71.1219V86.8537ZM72.9512 85.0244H71.1219V83.1951H72.9512V85.0244ZM69.2927 86.8537H67.4634V85.0244H69.2927V86.8537ZM67.4634 85.0244H65.6341V83.1951H67.4634V85.0244ZM65.6341 83.1951H63.8049V81.3659H65.6341V83.1951ZM71.1219 85.0244H69.2927V83.1951H71.1219V85.0244ZM72.9512 83.1951H71.1219V81.3659H72.9512V83.1951ZM74.7805 52.0976H72.9512V50.2683H74.7805V52.0976ZM74.7805 53.9268H72.9512V52.0976H74.7805V53.9268ZM74.7805 55.7561H72.9512V53.9268H74.7805V55.7561ZM74.7805 57.5854H72.9512V55.7561H74.7805V57.5854ZM74.7805 59.4146H72.9512V57.5854H74.7805V59.4146ZM74.7805 63.0732H72.9512V61.2439H74.7805V63.0732ZM74.7805 64.9024H72.9512V63.0732H74.7805V64.9024ZM74.7805 66.7317H72.9512V64.9024H74.7805V66.7317ZM74.7805 68.561H72.9512V66.7317H74.7805V68.561ZM74.7805 70.3902H72.9512V68.561H74.7805V70.3902ZM74.7805 72.2195H72.9512V70.3902H74.7805V72.2195ZM74.7805 74.0488H72.9512V72.2195H74.7805V74.0488ZM74.7805 75.8781H72.9512V74.0488H74.7805V75.8781ZM74.7805 77.7073H72.9512V75.8781H74.7805V77.7073ZM76.6098 77.7073H74.7805V75.8781H76.6098V77.7073ZM76.6098 75.8781H74.7805V74.0488H76.6098V75.8781ZM76.6098 74.0488H74.7805V72.2195H76.6098V74.0488ZM76.6098 70.3902H74.7805V68.561H76.6098V70.3902ZM76.6098 68.561H74.7805V66.7317H76.6098V68.561ZM76.6098 66.7317H74.7805V64.9024H76.6098V66.7317ZM78.439 63.0732H76.6098V61.2439H78.439V63.0732ZM78.439 61.2439H76.6098V59.4146H78.439V61.2439ZM78.439 59.4146H76.6098V57.5854H78.439V59.4146ZM78.439 57.5854H76.6098V55.7561H78.439V57.5854ZM78.439 55.7561H76.6098V53.9268H78.439V55.7561ZM78.439 53.9268H76.6098V52.0976H78.439V53.9268ZM78.439 52.0976H76.6098V50.2683H78.439V52.0976ZM82.0976 52.0976H80.2683V50.2683H82.0976V52.0976ZM82.0976 53.9268H80.2683V52.0976H82.0976V53.9268ZM82.0976 55.7561H80.2683V53.9268H82.0976V55.7561ZM82.0976 59.4146H80.2683V57.5854H82.0976V59.4146ZM82.0976 61.2439H80.2683V59.4146H82.0976V61.2439ZM82.0976 64.9024H80.2683V63.0732H82.0976V64.9024ZM80.2683 64.9024H78.439V63.0732H80.2683V64.9024ZM80.2683 66.7317H78.439V64.9024H80.2683V66.7317ZM80.2683 63.0732H78.439V61.2439H80.2683V63.0732ZM80.2683 61.2439H78.439V59.4146H80.2683V61.2439ZM80.2683 59.4146H78.439V57.5854H80.2683V59.4146ZM80.2683 57.5854H78.439V55.7561H80.2683V57.5854ZM80.2683 55.7561H78.439V53.9268H80.2683V55.7561ZM80.2683 53.9268H78.439V52.0976H80.2683V53.9268ZM76.6098 52.0976H74.7805V50.2683H76.6098V52.0976ZM76.6098 55.7561H74.7805V53.9268H76.6098V55.7561ZM76.6098 57.5854H74.7805V55.7561H76.6098V57.5854ZM76.6098 59.4146H74.7805V57.5854H76.6098V59.4146ZM76.6098 61.2439H74.7805V59.4146H76.6098V61.2439ZM76.6098 63.0732H74.7805V61.2439H76.6098V63.0732ZM74.7805 83.1951H72.9512V81.3659H74.7805V83.1951ZM74.7805 79.5366H72.9512V77.7073H74.7805V79.5366ZM80.2683 86.8537H78.439V85.0244H80.2683V86.8537ZM80.2683 83.1951H78.439V81.3659H80.2683V83.1951ZM80.2683 81.3659H78.439V79.5366H80.2683V81.3659ZM80.2683 79.5366H78.439V77.7073H80.2683V79.5366ZM80.2683 77.7073H78.439V75.8781H80.2683V77.7073ZM80.2683 75.8781H78.439V74.0488H80.2683V75.8781ZM80.2683 74.0488H78.439V72.2195H80.2683V74.0488ZM80.2683 72.2195H78.439V70.3902H80.2683V72.2195ZM82.0976 70.3902H80.2683V68.561H82.0976V70.3902ZM82.0976 68.561H80.2683V66.7317H82.0976V68.561ZM82.0976 66.7317H80.2683V64.9024H82.0976V66.7317ZM82.0976 72.2195H80.2683V70.3902H82.0976V72.2195ZM82.0976 74.0488H80.2683V72.2195H82.0976V74.0488ZM82.0976 75.8781H80.2683V74.0488H82.0976V75.8781ZM82.0976 77.7073H80.2683V75.8781H82.0976V77.7073ZM82.0976 79.5366H80.2683V77.7073H82.0976V79.5366ZM82.0976 81.3659H80.2683V79.5366H82.0976V81.3659ZM82.0976 83.1951H80.2683V81.3659H82.0976V83.1951ZM82.0976 85.0244H80.2683V83.1951H82.0976V85.0244ZM82.0976 86.8537H80.2683V85.0244H82.0976V86.8537ZM82.0976 88.6829H80.2683V86.8537H82.0976V88.6829ZM80.2683 85.0244H78.439V83.1951H80.2683V85.0244ZM82.0976 90.5122H80.2683V88.6829H82.0976V90.5122ZM82.0976 92.3415H80.2683V90.5122H82.0976V92.3415ZM78.439 86.8537H76.6098V85.0244H78.439V86.8537ZM78.439 85.0244H76.6098V83.1951H78.439V85.0244ZM78.439 83.1951H76.6098V81.3659H78.439V83.1951ZM76.6098 81.3659H74.7805V79.5366H76.6098V81.3659ZM76.6098 79.5366H74.7805V77.7073H76.6098V79.5366ZM76.6098 83.1951H74.7805V81.3659H76.6098V83.1951ZM76.6098 85.0244H74.7805V83.1951H76.6098V85.0244ZM78.439 81.3659H76.6098V79.5366H78.439V81.3659ZM78.439 79.5366H76.6098V77.7073H78.439V79.5366ZM78.439 74.0488H76.6098V72.2195H78.439V74.0488ZM78.439 72.2195H76.6098V70.3902H78.439V72.2195ZM78.439 70.3902H76.6098V68.561H78.439V70.3902ZM78.439 68.561H76.6098V66.7317H78.439V68.561ZM78.439 66.7317H76.6098V64.9024H78.439V66.7317ZM80.2683 68.561H78.439V66.7317H80.2683V68.561ZM80.2683 70.3902H78.439V68.561H80.2683V70.3902ZM93.0732 52.0976H91.2439V50.2683H93.0732V52.0976ZM93.0732 53.9268H91.2439V52.0976H93.0732V53.9268ZM93.0732 55.7561H91.2439V53.9268H93.0732V55.7561ZM93.0732 57.5854H91.2439V55.7561H93.0732V57.5854ZM93.0732 59.4146H91.2439V57.5854H93.0732V59.4146ZM93.0732 61.2439H91.2439V59.4146H93.0732V61.2439ZM93.0732 63.0732H91.2439V61.2439H93.0732V63.0732ZM93.0732 64.9024H91.2439V63.0732H93.0732V64.9024ZM93.0732 66.7317H91.2439V64.9024H93.0732V66.7317ZM93.0732 68.561H91.2439V66.7317H93.0732V68.561ZM93.0732 70.3902H91.2439V68.561H93.0732V70.3902ZM93.0732 72.2195H91.2439V70.3902H93.0732V72.2195ZM93.0732 74.0488H91.2439V72.2195H93.0732V74.0488ZM93.0732 75.8781H91.2439V74.0488H93.0732V75.8781ZM93.0732 77.7073H91.2439V75.8781H93.0732V77.7073ZM94.9024 77.7073H93.0732V75.8781H94.9024V77.7073ZM94.9024 75.8781H93.0732V74.0488H94.9024V75.8781ZM94.9024 74.0488H93.0732V72.2195H94.9024V74.0488ZM94.9024 72.2195H93.0732V70.3902H94.9024V72.2195ZM94.9024 70.3902H93.0732V68.561H94.9024V70.3902ZM94.9024 68.561H93.0732V66.7317H94.9024V68.561ZM94.9024 66.7317H93.0732V64.9024H94.9024V66.7317ZM96.7317 64.9024H94.9024V63.0732H96.7317V64.9024ZM96.7317 63.0732H94.9024V61.2439H96.7317V63.0732ZM96.7317 61.2439H94.9024V59.4146H96.7317V61.2439ZM96.7317 59.4146H94.9024V57.5854H96.7317V59.4146ZM96.7317 57.5854H94.9024V55.7561H96.7317V57.5854ZM96.7317 55.7561H94.9024V53.9268H96.7317V55.7561ZM96.7317 53.9268H94.9024V52.0976H96.7317V53.9268ZM96.7317 52.0976H94.9024V50.2683H96.7317V52.0976ZM98.561 52.0976H96.7317V50.2683H98.561V52.0976ZM100.39 52.0976H98.561V50.2683H100.39V52.0976ZM100.39 53.9268H98.561V52.0976H100.39V53.9268ZM100.39 55.7561H98.561V53.9268H100.39V55.7561ZM100.39 57.5854H98.561V55.7561H100.39V57.5854ZM100.39 59.4146H98.561V57.5854H100.39V59.4146ZM100.39 61.2439H98.561V59.4146H100.39V61.2439ZM100.39 63.0732H98.561V61.2439H100.39V63.0732ZM100.39 64.9024H98.561V63.0732H100.39V64.9024ZM98.561 64.9024H96.7317V63.0732H98.561V64.9024ZM98.561 66.7317H96.7317V64.9024H98.561V66.7317ZM98.561 63.0732H96.7317V61.2439H98.561V63.0732ZM98.561 61.2439H96.7317V59.4146H98.561V61.2439ZM98.561 59.4146H96.7317V57.5854H98.561V59.4146ZM98.561 57.5854H96.7317V55.7561H98.561V57.5854ZM98.561 55.7561H96.7317V53.9268H98.561V55.7561ZM98.561 53.9268H96.7317V52.0976H98.561V53.9268ZM94.9024 52.0976H93.0732V50.2683H94.9024V52.0976ZM94.9024 53.9268H93.0732V52.0976H94.9024V53.9268ZM94.9024 55.7561H93.0732V53.9268H94.9024V55.7561ZM94.9024 57.5854H93.0732V55.7561H94.9024V57.5854ZM94.9024 59.4146H93.0732V57.5854H94.9024V59.4146ZM94.9024 61.2439H93.0732V59.4146H94.9024V61.2439ZM94.9024 63.0732H93.0732V61.2439H94.9024V63.0732ZM94.9024 64.9024H93.0732V63.0732H94.9024V64.9024ZM93.0732 92.3415H91.2439V90.5122H93.0732V92.3415ZM93.0732 90.5122H91.2439V88.6829H93.0732V90.5122ZM93.0732 88.6829H91.2439V86.8537H93.0732V88.6829ZM93.0732 86.8537H91.2439V85.0244H93.0732V86.8537ZM93.0732 85.0244H91.2439V83.1951H93.0732V85.0244ZM93.0732 83.1951H91.2439V81.3659H93.0732V83.1951ZM93.0732 81.3659H91.2439V79.5366H93.0732V81.3659ZM93.0732 79.5366H91.2439V77.7073H93.0732V79.5366ZM98.561 86.8537H96.7317V85.0244H98.561V86.8537ZM98.561 83.1951H96.7317V81.3659H98.561V83.1951ZM98.561 81.3659H96.7317V79.5366H98.561V81.3659ZM98.561 79.5366H96.7317V77.7073H98.561V79.5366ZM98.561 77.7073H96.7317V75.8781H98.561V77.7073ZM98.561 75.8781H96.7317V74.0488H98.561V75.8781ZM98.561 74.0488H96.7317V72.2195H98.561V74.0488ZM98.561 72.2195H96.7317V70.3902H98.561V72.2195ZM100.39 70.3902H98.561V68.561H100.39V70.3902ZM100.39 68.561H98.561V66.7317H100.39V68.561ZM100.39 66.7317H98.561V64.9024H100.39V66.7317ZM100.39 72.2195H98.561V70.3902H100.39V72.2195ZM100.39 74.0488H98.561V72.2195H100.39V74.0488ZM100.39 75.8781H98.561V74.0488H100.39V75.8781ZM100.39 77.7073H98.561V75.8781H100.39V77.7073ZM100.39 79.5366H98.561V77.7073H100.39V79.5366ZM100.39 81.3659H98.561V79.5366H100.39V81.3659ZM100.39 83.1951H98.561V81.3659H100.39V83.1951ZM100.39 85.0244H98.561V83.1951H100.39V85.0244ZM98.561 85.0244H96.7317V83.1951H98.561V85.0244ZM96.7317 88.6829H94.9024V86.8537H96.7317V88.6829ZM96.7317 86.8537H94.9024V85.0244H96.7317V86.8537ZM96.7317 85.0244H94.9024V83.1951H96.7317V85.0244ZM96.7317 83.1951H94.9024V81.3659H96.7317V83.1951ZM94.9024 81.3659H93.0732V79.5366H94.9024V81.3659ZM94.9024 79.5366H93.0732V77.7073H94.9024V79.5366ZM94.9024 83.1951H93.0732V81.3659H94.9024V83.1951ZM94.9024 85.0244H93.0732V83.1951H94.9024V85.0244ZM94.9024 86.8537H93.0732V85.0244H94.9024V86.8537ZM94.9024 88.6829H93.0732V86.8537H94.9024V88.6829ZM94.9024 90.5122H93.0732V88.6829H94.9024V90.5122ZM96.7317 81.3659H94.9024V79.5366H96.7317V81.3659ZM96.7317 79.5366H94.9024V77.7073H96.7317V79.5366ZM96.7317 77.7073H94.9024V75.8781H96.7317V77.7073ZM96.7317 75.8781H94.9024V74.0488H96.7317V75.8781ZM96.7317 74.0488H94.9024V72.2195H96.7317V74.0488ZM96.7317 72.2195H94.9024V70.3902H96.7317V72.2195ZM96.7317 70.3902H94.9024V68.561H96.7317V70.3902ZM96.7317 68.561H94.9024V66.7317H96.7317V68.561ZM96.7317 66.7317H94.9024V64.9024H96.7317V66.7317ZM98.561 68.561H96.7317V66.7317H98.561V68.561ZM98.561 70.3902H96.7317V68.561H98.561V70.3902ZM85.7561 96H83.9268V94.1707H85.7561V96ZM87.5854 96H85.7561V94.1707H87.5854V96ZM89.4146 96H87.5854V94.1707H89.4146V96ZM91.2439 94.1707H89.4146V92.3415H91.2439V94.1707ZM89.4146 94.1707H87.5854V92.3415H89.4146V94.1707ZM87.5854 94.1707H85.7561V92.3415H87.5854V94.1707ZM85.7561 94.1707H83.9268V92.3415H85.7561V94.1707ZM83.9268 94.1707H82.0976V92.3415H83.9268V94.1707ZM83.9268 92.3415H82.0976V90.5122H83.9268V92.3415ZM83.9268 90.5122H82.0976V88.6829H83.9268V90.5122ZM85.7561 92.3415H83.9268V90.5122H85.7561V92.3415ZM87.5854 92.3415H85.7561V90.5122H87.5854V92.3415ZM89.4146 92.3415H87.5854V90.5122H89.4146V92.3415ZM91.2439 92.3415H89.4146V90.5122H91.2439V92.3415ZM91.2439 90.5122H89.4146V88.6829H91.2439V90.5122ZM89.4146 90.5122H87.5854V88.6829H89.4146V90.5122ZM87.5854 90.5122H85.7561V88.6829H87.5854V90.5122ZM85.7561 90.5122H83.9268V88.6829H85.7561V90.5122ZM83.9268 88.6829H82.0976V86.8537H83.9268V88.6829ZM85.7561 88.6829H83.9268V86.8537H85.7561V88.6829ZM91.2439 88.6829H89.4146V86.8537H91.2439V88.6829ZM89.4146 88.6829H87.5854V86.8537H89.4146V88.6829ZM91.2439 86.8537H89.4146V85.0244H91.2439V86.8537ZM83.9268 86.8537H82.0976V85.0244H83.9268V86.8537ZM80.2683 90.5122H78.439V88.6829H80.2683V90.5122ZM80.2683 88.6829H78.439V86.8537H80.2683V88.6829ZM78.439 88.6829H76.6098V86.8537H78.439V88.6829ZM76.6098 86.8537H74.7805V85.0244H76.6098V86.8537ZM74.7805 85.0244H72.9512V83.1951H74.7805V85.0244ZM83.9268 85.0244H82.0976V83.1951H83.9268V85.0244ZM85.7561 86.8537H83.9268V85.0244H85.7561V86.8537ZM87.5854 88.6829H85.7561V86.8537H87.5854V88.6829ZM89.4146 86.8537H87.5854V85.0244H89.4146V86.8537ZM91.2439 85.0244H89.4146V83.1951H91.2439V85.0244ZM87.5854 86.8537H85.7561V85.0244H87.5854V86.8537ZM85.7561 85.0244H83.9268V83.1951H85.7561V85.0244ZM83.9268 83.1951H82.0976V81.3659H83.9268V83.1951ZM89.4146 85.0244H87.5854V83.1951H89.4146V85.0244ZM91.2439 83.1951H89.4146V81.3659H91.2439V83.1951ZM74.7805 79.5366V81.3659H72.9512V79.5366H74.7805ZM78.439 75.8781V77.7073H76.6098V75.8781H78.439ZM78.439 74.0488V75.8781H76.6098V74.0488H78.439ZM76.6098 70.3902V72.2195H74.7805V70.3902H76.6098ZM80.2683 50.2683V52.0976H78.439V50.2683H80.2683ZM76.6098 52.0976V53.9268H74.7805V52.0976H76.6098ZM82.0976 55.7561V57.5854H80.2683V55.7561H82.0976ZM74.7805 59.4146V61.2439H72.9512V59.4146H74.7805ZM82.0976 61.2439V63.0732H80.2683V61.2439H82.0976ZM78.439 63.0732V64.9024H76.6098V63.0732H78.439ZM76.6098 63.0732V64.9024H74.7805V63.0732H76.6098Z" fill="#0ED41B"/>
</g>
<g filter="url(#filter1_d_240_8)">
<path d="M113.898 32.2861C120.12 38.5087 124.044 45.6858 125.671 53.8175C127.226 62.02 126.449 70.4345 123.337 79.0612C120.085 87.6879 114.746 95.7136 107.321 103.138C99.9675 110.492 91.9772 115.725 83.3505 118.836C74.6531 122.018 66.2031 122.831 58.0007 121.276C49.7983 119.72 42.6211 115.866 36.4693 109.714C30.3175 103.562 26.4991 96.4207 25.0142 88.289C23.3878 80.1573 24.1656 71.7427 27.3476 63.0453C30.4589 54.4186 35.7268 46.3929 43.1515 38.9683C50.5054 31.6144 58.531 26.3464 67.2285 23.1645C75.8552 20.0532 84.2697 19.2754 92.4722 20.831C100.675 22.3866 107.816 26.205 113.898 32.2861ZM106.155 40.0289C101.771 35.6449 96.538 33.0286 90.4569 32.1801C84.2344 31.3315 77.7997 32.2508 71.1529 34.9378C64.4354 37.6955 58.1068 42.0442 52.1671 47.9839C46.2274 53.9236 41.914 60.2168 39.227 66.8636C36.4693 73.5812 35.5501 80.0158 36.4693 86.1677C37.2471 92.3195 39.8281 97.5874 44.2121 101.972C48.6669 106.426 54.0056 109.078 60.2281 109.926C66.3092 110.775 72.7085 109.82 79.426 107.063C86.0729 104.376 92.3661 100.062 98.3058 94.1226C104.245 88.1829 108.594 81.8543 111.352 75.1368C114.039 68.49 114.994 62.0907 114.216 55.9389C113.296 49.787 110.609 44.4837 106.155 40.0289Z" fill="#FFC21A"/>
</g>
<defs>
<filter id="filter0_d_240_8" x="50.6584" y="50.2681" width="53.7317" height="53.7319" filterUnits="userSpaceOnUse" color-interpolation-filters="sRGB">
<feFlood flood-opacity="0" result="BackgroundImageFix"/>
<feColorMatrix in="SourceAlpha" type="matrix" values="0 0 0 0 0 0 0 0 0 0 0 0 0 0 0 0 0 0 127 0" result="hardAlpha"/>
<feOffset dy="4"/>
<feGaussianBlur stdDeviation="2"/>
<feComposite in2="hardAlpha" operator="out"/>
<feColorMatrix type="matrix" values="0 0 0 0 0 0 0 0 0 0 0 0 0 0 0 0 0 0 0.25 0"/>
<feBlend mode="normal" in2="BackgroundImageFix" result="effect1_dropShadow_240_8"/>
<feBlend mode="normal" in="SourceGraphic" in2="effect1_dropShadow_240_8" result="shape"/>
</filter>
<filter id="filter1_d_240_8" x="0.437256" y="0.254395" width="149.598" height="149.598" filterUnits="userSpaceOnUse" color-interpolation-filters="sRGB">
<feFlood flood-opacity="0" result="BackgroundImageFix"/>
<feColorMatrix in="SourceAlpha" type="matrix" values="0 0 0 0 0 0 0 0 0 0 0 0 0 0 0 0 0 0 127 0" result="hardAlpha"/>
<feOffset dy="4"/>
<feGaussianBlur stdDeviation="2"/>
<feComposite in2="hardAlpha" operator="out"/>
<feColorMatrix type="matrix" values="0 0 0 0 0 0 0 0 0 0 0 0 0 0 0 0 0 0 0.25 0"/>
<feBlend mode="normal" in2="BackgroundImageFix" result="effect1_dropShadow_240_8"/>
<feBlend mode="normal" in="SourceGraphic" in2="effect1_dropShadow_240_8" result="shape"/>
</filter>
</defs>
</svg>
