<svg width="156" height="156" viewBox="0 0 156 156" fill="none" xmlns="http://www.w3.org/2000/svg">
<g filter="url(#filter0_d_242_5)">
<path d="M77.8982 148C63.9193 148 51.2976 144.824 40.033 138.471C28.7685 132.119 19.9468 123.333 13.5681 112.115C7.18936 100.762 4 88.0566 4 74C4 59.9434 7.18936 47.3059 13.5681 36.0877C19.9468 24.7342 28.7685 15.8813 40.033 9.52876C51.2976 3.17625 63.9193 0 77.8982 0C92.0128 0 104.702 3.17626 115.967 9.52876C127.232 15.8813 136.053 24.7342 142.432 36.0877C148.811 47.3059 152 59.9434 152 74C152 88.0566 148.811 100.762 142.432 112.115C136.053 123.333 127.232 132.119 115.967 138.471C104.702 144.824 92.0128 148 77.8982 148ZM77.8982 131.781C88.8913 131.781 98.663 129.348 107.213 124.482C115.899 119.481 122.685 112.656 127.571 104.005C132.457 95.2201 134.9 85.2183 134.9 74C134.9 62.7817 132.457 52.8475 127.571 44.1973C122.685 35.4119 115.899 28.5863 107.213 23.7205C98.663 18.7196 88.8913 16.2192 77.8982 16.2192C67.0408 16.2192 57.2691 18.7196 48.5832 23.7205C40.033 28.5863 33.315 35.4119 28.4292 44.1973C23.5433 52.8475 21.1004 62.7817 21.1004 74C21.1004 85.2183 23.5433 95.2201 28.4292 104.005C33.315 112.656 40.033 119.481 48.5832 124.482C57.2691 129.348 67.0408 131.781 77.8982 131.781Z" fill="#FFC21A"/>
</g>
<g filter="url(#filter1_d_242_5)">
<path d="M44 44H41V41H44V44ZM44 47H41V44H44V47ZM44 50H41V47H44V50ZM44 53H41V50H44V53ZM44 56H41V53H44V56ZM44 59H41V56H44V59ZM44 62H41V59H44V62ZM44 65H41V62H44V65ZM44 68H41V65H44V68ZM44 71H41V68H44V71ZM44 74H41V71H44V74ZM44 77H41V74H44V77ZM44 80H41V77H44V80ZM44 83H41V80H44V83ZM44 86H41V83H44V86ZM47 86H44V83H47V86ZM47 83H44V80H47V83ZM47 80H44V77H47V80ZM47 77H44V74H47V77ZM47 74H44V71H47V74ZM47 71H44V68H47V71ZM47 68H44V65H47V68ZM50 65H47V62H50V65ZM50 62H47V59H50V62ZM50 59H47V56H50V59ZM50 56H47V53H50V56ZM50 53H47V50H50V53ZM50 50H47V47H50V50ZM50 47H47V44H50V47ZM50 44H47V41H50V44ZM53 44H50V41H53V44ZM56 44H53V41H56V44ZM56 47H53V44H56V47ZM56 50H53V47H56V50ZM56 53H53V50H56V53ZM56 56H53V53H56V56ZM56 59H53V56H56V59ZM56 62H53V59H56V62ZM56 65H53V62H56V65ZM53 65H50V62H53V65ZM53 68H50V65H53V68ZM53 62H50V59H53V62ZM53 59H50V56H53V59ZM53 56H50V53H53V56ZM53 53H50V50H53V53ZM53 50H50V47H53V50ZM53 47H50V44H53V47ZM47 44H44V41H47V44ZM47 47H44V44H47V47ZM47 50H44V47H47V50ZM47 53H44V50H47V53ZM47 56H44V53H47V56ZM47 59H44V56H47V59ZM47 62H44V59H47V62ZM47 65H44V62H47V65ZM44 95H41V92H44V95ZM44 92H41V89H44V92ZM44 89H41V86H44V89ZM53 101H50V98H53V101ZM53 95H50V92H53V95ZM53 92H50V89H53V92ZM53 89H50V86H53V89ZM53 86H50V83H53V86ZM53 83H50V80H53V83ZM53 80H50V77H53V80ZM53 77H50V74H53V77ZM56 74H53V71H56V74ZM56 71H53V68H56V71ZM56 68H53V65H56V68ZM56 77H53V74H56V77ZM56 80H53V77H56V80ZM56 83H53V80H56V83ZM56 86H53V83H56V86ZM56 89H53V86H56V89ZM56 92H53V89H56V92ZM56 95H53V92H56V95ZM56 98H53V95H56V98ZM56 101H53V98H56V101ZM56 104H53V101H56V104ZM53 98H50V95H53V98ZM56 107H53V104H56V107ZM56 110H53V107H56V110ZM50 101H47V98H50V101ZM50 98H47V95H50V98ZM50 95H47V92H50V95ZM47 92H44V89H47V92ZM47 89H44V86H47V89ZM47 95H44V92H47V95ZM47 98H44V95H47V98ZM50 92H47V89H50V92ZM50 89H47V86H50V89ZM50 86H47V83H50V86ZM50 83H47V80H50V83ZM50 80H47V77H50V80ZM50 77H47V74H50V77ZM50 74H47V71H50V74ZM50 71H47V68H50V71ZM50 68H47V65H50V68ZM53 71H50V68H53V71ZM53 74H50V71H53V74ZM74 110H71V107H74V110ZM74 107H71V104H74V107ZM74 104H71V101H74V104ZM74 101H71V98H74V101ZM77 104H74V101H77V104ZM77 107H74V104H77V107ZM62 116H59V113H62V116ZM65 116H62V113H65V116ZM68 116H65V113H68V116ZM71 113H68V110H71V113ZM68 113H65V110H68V113ZM65 113H62V110H65V113ZM62 113H59V110H62V113ZM59 113H56V110H59V113ZM59 110H56V107H59V110ZM59 107H56V104H59V107ZM62 110H59V107H62V110ZM65 110H62V107H65V110ZM68 110H65V107H68V110ZM71 110H68V107H71V110ZM71 107H68V104H71V107ZM68 107H65V104H68V107ZM65 107H62V104H65V107ZM62 107H59V104H62V107ZM59 104H56V101H59V104ZM62 104H59V101H62V104ZM71 104H68V101H71V104ZM68 104H65V101H68V104ZM71 101H68V98H71V101ZM59 101H56V98H59V101ZM53 107H50V104H53V107ZM53 104H50V101H53V104ZM50 104H47V101H50V104ZM47 101H44V98H47V101ZM44 98H41V95H44V98ZM59 98H56V95H59V98ZM62 101H59V98H62V101ZM65 104H62V101H65V104ZM68 101H65V98H68V101ZM71 98H68V95H71V98ZM65 101H62V98H65V101ZM62 98H59V95H62V98ZM59 95H56V92H59V95ZM68 98H65V95H68V98ZM71 95H68V92H71V95ZM74 44H71V41H74V44ZM74 47H71V44H74V47ZM74 50H71V47H74V50ZM74 53H71V50H74V53ZM74 56H71V53H74V56ZM74 62H71V59H74V62ZM74 65H71V62H74V65ZM74 68H71V65H74V68ZM74 71H71V68H74V71ZM74 74H71V71H74V74ZM74 77H71V74H74V77ZM74 80H71V77H74V80ZM74 83H71V80H74V83ZM74 86H71V83H74V86ZM77 86H74V83H77V86ZM77 83H74V80H77V83ZM77 80H74V77H77V80ZM77 74H74V71H77V74ZM77 71H74V68H77V71ZM77 68H74V65H77V68ZM80 62H77V59H80V62ZM80 59H77V56H80V59ZM80 56H77V53H80V56ZM80 53H77V50H80V53ZM80 50H77V47H80V50ZM80 47H77V44H80V47ZM80 44H77V41H80V44ZM86 44H83V41H86V44ZM86 47H83V44H86V47ZM86 50H83V47H86V50ZM86 56H83V53H86V56ZM86 59H83V56H86V59ZM86 65H83V62H86V65ZM83 65H80V62H83V65ZM83 68H80V65H83V68ZM83 62H80V59H83V62ZM83 59H80V56H83V59ZM83 56H80V53H83V56ZM83 53H80V50H83V53ZM83 50H80V47H83V50ZM83 47H80V44H83V47ZM77 44H74V41H77V44ZM77 50H74V47H77V50ZM77 53H74V50H77V53ZM77 56H74V53H77V56ZM77 59H74V56H77V59ZM77 62H74V59H77V62ZM74 95H71V92H74V95ZM74 89H71V86H74V89ZM83 101H80V98H83V101ZM83 95H80V92H83V95ZM83 92H80V89H83V92ZM83 89H80V86H83V89ZM83 86H80V83H83V86ZM83 83H80V80H83V83ZM83 80H80V77H83V80ZM83 77H80V74H83V77ZM86 74H83V71H86V74ZM86 71H83V68H86V71ZM86 68H83V65H86V68ZM86 77H83V74H86V77ZM86 80H83V77H86V80ZM86 83H83V80H86V83ZM86 86H83V83H86V86ZM86 89H83V86H86V89ZM86 92H83V89H86V92ZM86 95H83V92H86V95ZM86 98H83V95H86V98ZM86 101H83V98H86V101ZM86 104H83V101H86V104ZM83 98H80V95H83V98ZM86 107H83V104H86V107ZM86 110H83V107H86V110ZM80 101H77V98H80V101ZM80 98H77V95H80V98ZM80 95H77V92H80V95ZM77 92H74V89H77V92ZM77 89H74V86H77V89ZM77 95H74V92H77V95ZM77 98H74V95H77V98ZM80 92H77V89H80V92ZM80 89H77V86H80V89ZM80 80H77V77H80V80ZM80 77H77V74H80V77ZM80 74H77V71H80V74ZM80 71H77V68H80V71ZM80 68H77V65H80V68ZM83 71H80V68H83V71ZM83 74H80V71H83V74ZM104 44H101V41H104V44ZM104 47H101V44H104V47ZM104 50H101V47H104V50ZM104 53H101V50H104V53ZM104 56H101V53H104V56ZM104 59H101V56H104V59ZM104 62H101V59H104V62ZM104 65H101V62H104V65ZM104 68H101V65H104V68ZM104 71H101V68H104V71ZM104 74H101V71H104V74ZM104 77H101V74H104V77ZM104 80H101V77H104V80ZM104 83H101V80H104V83ZM104 86H101V83H104V86ZM107 86H104V83H107V86ZM107 83H104V80H107V83ZM107 80H104V77H107V80ZM107 77H104V74H107V77ZM107 74H104V71H107V74ZM107 71H104V68H107V71ZM107 68H104V65H107V68ZM110 65H107V62H110V65ZM110 62H107V59H110V62ZM110 59H107V56H110V59ZM110 56H107V53H110V56ZM110 53H107V50H110V53ZM110 50H107V47H110V50ZM110 47H107V44H110V47ZM110 44H107V41H110V44ZM113 44H110V41H113V44ZM116 44H113V41H116V44ZM116 47H113V44H116V47ZM116 50H113V47H116V50ZM116 53H113V50H116V53ZM116 56H113V53H116V56ZM116 59H113V56H116V59ZM116 62H113V59H116V62ZM116 65H113V62H116V65ZM113 65H110V62H113V65ZM113 68H110V65H113V68ZM113 62H110V59H113V62ZM113 59H110V56H113V59ZM113 56H110V53H113V56ZM113 53H110V50H113V53ZM113 50H110V47H113V50ZM113 47H110V44H113V47ZM107 44H104V41H107V44ZM107 47H104V44H107V47ZM107 50H104V47H107V50ZM107 53H104V50H107V53ZM107 56H104V53H107V56ZM107 59H104V56H107V59ZM107 62H104V59H107V62ZM107 65H104V62H107V65ZM104 110H101V107H104V110ZM104 107H101V104H104V107ZM104 104H101V101H104V104ZM104 101H101V98H104V101ZM104 98H101V95H104V98ZM104 95H101V92H104V95ZM104 92H101V89H104V92ZM104 89H101V86H104V89ZM113 101H110V98H113V101ZM113 95H110V92H113V95ZM113 92H110V89H113V92ZM113 89H110V86H113V89ZM113 86H110V83H113V86ZM113 83H110V80H113V83ZM113 80H110V77H113V80ZM113 77H110V74H113V77ZM116 74H113V71H116V74ZM116 71H113V68H116V71ZM116 68H113V65H116V68ZM116 77H113V74H116V77ZM116 80H113V77H116V80ZM116 83H113V80H116V83ZM116 86H113V83H116V86ZM116 89H113V86H116V89ZM116 92H113V89H116V92ZM116 95H113V92H116V95ZM116 98H113V95H116V98ZM113 98H110V95H113V98ZM110 104H107V101H110V104ZM110 101H107V98H110V101ZM110 98H107V95H110V98ZM110 95H107V92H110V95ZM107 92H104V89H107V92ZM107 89H104V86H107V89ZM107 95H104V92H107V95ZM107 98H104V95H107V98ZM107 101H104V98H107V101ZM107 104H104V101H107V104ZM107 107H104V104H107V107ZM110 92H107V89H110V92ZM110 89H107V86H110V89ZM110 86H107V83H110V86ZM110 83H107V80H110V83ZM110 80H107V77H110V80ZM110 77H107V74H110V77ZM110 74H107V71H110V74ZM110 71H107V68H110V71ZM110 68H107V65H110V68ZM113 71H110V68H113V71ZM113 74H110V71H113V74ZM92 116H89V113H92V116ZM95 116H92V113H95V116ZM98 116H95V113H98V116ZM101 113H98V110H101V113ZM98 113H95V110H98V113ZM95 113H92V110H95V113ZM92 113H89V110H92V113ZM89 113H86V110H89V113ZM89 110H86V107H89V110ZM89 107H86V104H89V107ZM92 110H89V107H92V110ZM95 110H92V107H95V110ZM98 110H95V107H98V110ZM101 110H98V107H101V110ZM101 107H98V104H101V107ZM98 107H95V104H98V107ZM95 107H92V104H95V107ZM92 107H89V104H92V107ZM89 104H86V101H89V104ZM92 104H89V101H92V104ZM101 104H98V101H101V104ZM98 104H95V101H98V104ZM101 101H98V98H101V101ZM89 101H86V98H89V101ZM83 107H80V104H83V107ZM83 104H80V101H83V104ZM80 104H77V101H80V104ZM77 101H74V98H77V101ZM74 98H71V95H74V98ZM89 98H86V95H89V98ZM92 101H89V98H92V101ZM95 104H92V101H95V104ZM98 101H95V98H98V101ZM101 98H98V95H101V98ZM95 101H92V98H95V101ZM92 98H89V95H92V98ZM89 95H86V92H89V95ZM98 98H95V95H98V98ZM101 95H98V92H101V95ZM74 89V92H71V89H74ZM80 83V86H77V83H80ZM80 80V83H77V80H80ZM77 74V77H74V74H77ZM83 41V44H80V41H83ZM77 44V47H74V44H77ZM86 50V53H83V50H86ZM74 56V59H71V56H74ZM86 59V62H83V59H86ZM80 62V65H77V62H80ZM77 62V65H74V62H77Z" fill="#0ED41B"/>
</g>
<defs>
<filter id="filter0_d_242_5" x="0" y="0" width="156" height="156" filterUnits="userSpaceOnUse" color-interpolation-filters="sRGB">
<feFlood flood-opacity="0" result="BackgroundImageFix"/>
<feColorMatrix in="SourceAlpha" type="matrix" values="0 0 0 0 0 0 0 0 0 0 0 0 0 0 0 0 0 0 127 0" result="hardAlpha"/>
<feOffset dy="4"/>
<feGaussianBlur stdDeviation="2"/>
<feComposite in2="hardAlpha" operator="out"/>
<feColorMatrix type="matrix" values="0 0 0 0 0 0 0 0 0 0 0 0 0 0 0 0 0 0 0.25 0"/>
<feBlend mode="normal" in2="BackgroundImageFix" result="effect1_dropShadow_242_5"/>
<feBlend mode="normal" in="SourceGraphic" in2="effect1_dropShadow_242_5" result="shape"/>
</filter>
<filter id="filter1_d_242_5" x="37" y="41" width="83" height="83" filterUnits="userSpaceOnUse" color-interpolation-filters="sRGB">
<feFlood flood-opacity="0" result="BackgroundImageFix"/>
<feColorMatrix in="SourceAlpha" type="matrix" values="0 0 0 0 0 0 0 0 0 0 0 0 0 0 0 0 0 0 127 0" result="hardAlpha"/>
<feOffset dy="4"/>
<feGaussianBlur stdDeviation="2"/>
<feComposite in2="hardAlpha" operator="out"/>
<feColorMatrix type="matrix" values="0 0 0 0 0 0 0 0 0 0 0 0 0 0 0 0 0 0 0.25 0"/>
<feBlend mode="normal" in2="BackgroundImageFix" result="effect1_dropShadow_242_5"/>
<feBlend mode="normal" in="SourceGraphic" in2="effect1_dropShadow_242_5" result="shape"/>
</filter>
</defs>
</svg>
